<svg width="454" height="89" viewBox="0 0 454 89" fill="none" xmlns="http://www.w3.org/2000/svg">
<g filter="url(#filter0_d_1_28)">
<rect x="1.75" y="1" width="433" height="69" rx="8" fill="#4443FF" shape-rendering="crispEdges"/>
<path d="M122.95 36C122.95 34.6267 123.257 33.4 123.87 32.32C124.497 31.2267 125.343 30.38 126.41 29.78C127.49 29.1667 128.697 28.86 130.03 28.86C131.59 28.86 132.957 29.26 134.13 30.06C135.303 30.86 136.123 31.9667 136.59 33.38H133.37C133.05 32.7133 132.597 32.2133 132.01 31.88C131.437 31.5467 130.77 31.38 130.01 31.38C129.197 31.38 128.47 31.5733 127.83 31.96C127.203 32.3333 126.71 32.8667 126.35 33.56C126.003 34.2533 125.83 35.0667 125.83 36C125.83 36.92 126.003 37.7333 126.35 38.44C126.71 39.1333 127.203 39.6733 127.83 40.06C128.47 40.4333 129.197 40.62 130.01 40.62C130.77 40.62 131.437 40.4533 132.01 40.12C132.597 39.7733 133.05 39.2667 133.37 38.6H136.59C136.123 40.0267 135.303 41.14 134.13 41.94C132.97 42.7267 131.603 43.12 130.03 43.12C128.697 43.12 127.49 42.82 126.41 42.22C125.343 41.6067 124.497 40.76 123.87 39.68C123.257 38.6 122.95 37.3733 122.95 36ZM141.782 33.64C142.142 33.0533 142.608 32.5933 143.182 32.26C143.768 31.9267 144.435 31.76 145.182 31.76V34.7H144.442C143.562 34.7 142.895 34.9067 142.442 35.32C142.002 35.7333 141.782 36.4533 141.782 37.48V43H138.982V31.92H141.782V33.64ZM157.368 37.22C157.368 37.62 157.341 37.98 157.288 38.3H149.188C149.254 39.1 149.534 39.7267 150.028 40.18C150.521 40.6333 151.128 40.86 151.848 40.86C152.888 40.86 153.628 40.4133 154.068 39.52H157.088C156.768 40.5867 156.154 41.4667 155.248 42.16C154.341 42.84 153.228 43.18 151.908 43.18C150.841 43.18 149.881 42.9467 149.028 42.48C148.188 42 147.528 41.3267 147.048 40.46C146.581 39.5933 146.347 38.5933 146.347 37.46C146.347 36.3133 146.581 35.3067 147.048 34.44C147.514 33.5733 148.168 32.9067 149.008 32.44C149.848 31.9733 150.814 31.74 151.908 31.74C152.961 31.74 153.901 31.9667 154.728 32.42C155.568 32.8733 156.214 33.52 156.668 34.36C157.134 35.1867 157.368 36.14 157.368 37.22ZM154.468 36.42C154.454 35.7 154.194 35.1267 153.688 34.7C153.181 34.26 152.561 34.04 151.828 34.04C151.134 34.04 150.548 34.2533 150.068 34.68C149.601 35.0933 149.314 35.6733 149.208 36.42H154.468ZM158.691 37.42C158.691 36.3 158.911 35.3067 159.351 34.44C159.805 33.5733 160.411 32.9067 161.171 32.44C161.945 31.9733 162.805 31.74 163.751 31.74C164.578 31.74 165.298 31.9067 165.911 32.24C166.538 32.5733 167.038 32.9933 167.411 33.5V31.92H170.231V43H167.411V41.38C167.051 41.9 166.551 42.3333 165.911 42.68C165.285 43.0133 164.558 43.18 163.731 43.18C162.798 43.18 161.945 42.94 161.171 42.46C160.411 41.98 159.805 41.3067 159.351 40.44C158.911 39.56 158.691 38.5533 158.691 37.42ZM167.411 37.46C167.411 36.78 167.278 36.2 167.011 35.72C166.745 35.2267 166.385 34.8533 165.931 34.6C165.478 34.3333 164.991 34.2 164.471 34.2C163.951 34.2 163.471 34.3267 163.031 34.58C162.591 34.8333 162.231 35.2067 161.951 35.7C161.685 36.18 161.551 36.7533 161.551 37.42C161.551 38.0867 161.685 38.6733 161.951 39.18C162.231 39.6733 162.591 40.0533 163.031 40.32C163.485 40.5867 163.965 40.72 164.471 40.72C164.991 40.72 165.478 40.5933 165.931 40.34C166.385 40.0733 166.745 39.7 167.011 39.22C167.278 38.7267 167.411 38.14 167.411 37.46ZM176.226 34.22V39.58C176.226 39.9533 176.313 40.2267 176.486 40.4C176.673 40.56 176.979 40.64 177.406 40.64H178.706V43H176.946C174.586 43 173.406 41.8533 173.406 39.56V34.22H172.086V31.92H173.406V29.18H176.226V31.92H178.706V34.22H176.226ZM191.02 37.22C191.02 37.62 190.993 37.98 190.94 38.3H182.84C182.907 39.1 183.187 39.7267 183.68 40.18C184.173 40.6333 184.78 40.86 185.5 40.86C186.54 40.86 187.28 40.4133 187.72 39.52H190.74C190.42 40.5867 189.807 41.4667 188.9 42.16C187.993 42.84 186.88 43.18 185.56 43.18C184.493 43.18 183.533 42.9467 182.68 42.48C181.84 42 181.18 41.3267 180.7 40.46C180.233 39.5933 180 38.5933 180 37.46C180 36.3133 180.233 35.3067 180.7 34.44C181.167 33.5733 181.82 32.9067 182.66 32.44C183.5 31.9733 184.467 31.74 185.56 31.74C186.613 31.74 187.553 31.9667 188.38 32.42C189.22 32.8733 189.867 33.52 190.32 34.36C190.787 35.1867 191.02 36.14 191.02 37.22ZM188.12 36.42C188.107 35.7 187.847 35.1267 187.34 34.7C186.833 34.26 186.213 34.04 185.48 34.04C184.787 34.04 184.2 34.2533 183.72 34.68C183.253 35.0933 182.967 35.6733 182.86 36.42H188.12ZM197.109 37.42C197.109 36.3 197.329 35.3067 197.769 34.44C198.223 33.5733 198.829 32.9067 199.589 32.44C200.363 31.9733 201.223 31.74 202.169 31.74C202.996 31.74 203.716 31.9067 204.329 32.24C204.956 32.5733 205.456 32.9933 205.829 33.5V31.92H208.649V43H205.829V41.38C205.469 41.9 204.969 42.3333 204.329 42.68C203.703 43.0133 202.976 43.18 202.149 43.18C201.216 43.18 200.363 42.94 199.589 42.46C198.829 41.98 198.223 41.3067 197.769 40.44C197.329 39.56 197.109 38.5533 197.109 37.42ZM205.829 37.46C205.829 36.78 205.696 36.2 205.429 35.72C205.163 35.2267 204.803 34.8533 204.349 34.6C203.896 34.3333 203.409 34.2 202.889 34.2C202.369 34.2 201.889 34.3267 201.449 34.58C201.009 34.8333 200.649 35.2067 200.369 35.7C200.103 36.18 199.969 36.7533 199.969 37.42C199.969 38.0867 200.103 38.6733 200.369 39.18C200.649 39.6733 201.009 40.0533 201.449 40.32C201.903 40.5867 202.383 40.72 202.889 40.72C203.409 40.72 203.896 40.5933 204.349 40.34C204.803 40.0733 205.163 39.7 205.429 39.22C205.696 38.7267 205.829 38.14 205.829 37.46ZM217.524 31.76C218.844 31.76 219.911 32.18 220.724 33.02C221.537 33.8467 221.944 35.0067 221.944 36.5V43H219.144V36.88C219.144 36 218.924 35.3267 218.484 34.86C218.044 34.38 217.444 34.14 216.684 34.14C215.911 34.14 215.297 34.38 214.844 34.86C214.404 35.3267 214.184 36 214.184 36.88V43H211.384V31.92H214.184V33.3C214.557 32.82 215.031 32.4467 215.604 32.18C216.191 31.9 216.831 31.76 217.524 31.76ZM237.932 40.34H232.372L231.452 43H228.512L233.532 29.02H236.792L241.812 43H238.852L237.932 40.34ZM237.172 38.1L235.152 32.26L233.132 38.1H237.172ZM242.969 37.46C242.969 36.3133 243.202 35.3133 243.669 34.46C244.135 33.5933 244.782 32.9267 245.609 32.46C246.435 31.98 247.382 31.74 248.449 31.74C249.822 31.74 250.955 32.0867 251.849 32.78C252.755 33.46 253.362 34.42 253.669 35.66H250.649C250.489 35.18 250.215 34.8067 249.829 34.54C249.455 34.26 248.989 34.12 248.429 34.12C247.629 34.12 246.995 34.4133 246.529 35C246.062 35.5733 245.829 36.3933 245.829 37.46C245.829 38.5133 246.062 39.3333 246.529 39.92C246.995 40.4933 247.629 40.78 248.429 40.78C249.562 40.78 250.302 40.2733 250.649 39.26H253.669C253.362 40.46 252.755 41.4133 251.849 42.12C250.942 42.8267 249.809 43.18 248.449 43.18C247.382 43.18 246.435 42.9467 245.609 42.48C244.782 42 244.135 41.3333 243.669 40.48C243.202 39.6133 242.969 38.6067 242.969 37.46ZM255 37.46C255 36.3133 255.233 35.3133 255.7 34.46C256.167 33.5933 256.813 32.9267 257.64 32.46C258.467 31.98 259.413 31.74 260.48 31.74C261.853 31.74 262.987 32.0867 263.88 32.78C264.787 33.46 265.393 34.42 265.7 35.66H262.68C262.52 35.18 262.247 34.8067 261.86 34.54C261.487 34.26 261.02 34.12 260.46 34.12C259.66 34.12 259.027 34.4133 258.56 35C258.093 35.5733 257.86 36.3933 257.86 37.46C257.86 38.5133 258.093 39.3333 258.56 39.92C259.027 40.4933 259.66 40.78 260.46 40.78C261.593 40.78 262.333 40.2733 262.68 39.26H265.7C265.393 40.46 264.787 41.4133 263.88 42.12C262.973 42.8267 261.84 43.18 260.48 43.18C259.413 43.18 258.467 42.9467 257.64 42.48C256.813 42 256.167 41.3333 255.7 40.48C255.233 39.6133 255 38.6067 255 37.46ZM272.671 43.18C271.604 43.18 270.644 42.9467 269.791 42.48C268.938 42 268.264 41.3267 267.771 40.46C267.291 39.5933 267.051 38.5933 267.051 37.46C267.051 36.3267 267.298 35.3267 267.791 34.46C268.298 33.5933 268.984 32.9267 269.851 32.46C270.718 31.98 271.684 31.74 272.751 31.74C273.818 31.74 274.784 31.98 275.651 32.46C276.518 32.9267 277.198 33.5933 277.691 34.46C278.198 35.3267 278.451 36.3267 278.451 37.46C278.451 38.5933 278.191 39.5933 277.671 40.46C277.164 41.3267 276.471 42 275.591 42.48C274.724 42.9467 273.751 43.18 272.671 43.18ZM272.671 40.74C273.178 40.74 273.651 40.62 274.091 40.38C274.544 40.1267 274.904 39.7533 275.171 39.26C275.438 38.7667 275.571 38.1667 275.571 37.46C275.571 36.4067 275.291 35.6 274.731 35.04C274.184 34.4667 273.511 34.18 272.711 34.18C271.911 34.18 271.238 34.4667 270.691 35.04C270.158 35.6 269.891 36.4067 269.891 37.46C269.891 38.5133 270.151 39.3267 270.671 39.9C271.204 40.46 271.871 40.74 272.671 40.74ZM290.965 31.92V43H288.145V41.6C287.785 42.08 287.312 42.46 286.725 42.74C286.152 43.0067 285.525 43.14 284.845 43.14C283.978 43.14 283.212 42.96 282.545 42.6C281.878 42.2267 281.352 41.6867 280.965 40.98C280.592 40.26 280.405 39.4067 280.405 38.42V31.92H283.205V38.02C283.205 38.9 283.425 39.58 283.865 40.06C284.305 40.5267 284.905 40.76 285.665 40.76C286.438 40.76 287.045 40.5267 287.485 40.06C287.925 39.58 288.145 38.9 288.145 38.02V31.92H290.965ZM299.868 31.76C301.188 31.76 302.254 32.18 303.068 33.02C303.881 33.8467 304.288 35.0067 304.288 36.5V43H301.488V36.88C301.488 36 301.268 35.3267 300.828 34.86C300.388 34.38 299.788 34.14 299.028 34.14C298.254 34.14 297.641 34.38 297.188 34.86C296.748 35.3267 296.528 36 296.528 36.88V43H293.728V31.92H296.528V33.3C296.901 32.82 297.374 32.4467 297.948 32.18C298.534 31.9 299.174 31.76 299.868 31.76ZM310.21 34.22V39.58C310.21 39.9533 310.297 40.2267 310.47 40.4C310.657 40.56 310.964 40.64 311.39 40.64H312.69V43H310.93C308.57 43 307.39 41.8533 307.39 39.56V34.22H306.07V31.92H307.39V29.18H310.21V31.92H312.69V34.22H310.21Z" fill="white"/>
</g>
<defs>
<filter id="filter0_d_1_28" x="0.75" y="0" width="453" height="89" filterUnits="userSpaceOnUse" color-interpolation-filters="sRGB">
<feFlood flood-opacity="0" result="BackgroundImageFix"/>
<feColorMatrix in="SourceAlpha" type="matrix" values="0 0 0 0 0 0 0 0 0 0 0 0 0 0 0 0 0 0 127 0" result="hardAlpha"/>
<feOffset dx="9" dy="9"/>
<feGaussianBlur stdDeviation="5"/>
<feComposite in2="hardAlpha" operator="out"/>
<feColorMatrix type="matrix" values="0 0 0 0 0.447059 0 0 0 0 0.443137 0 0 0 0 1 0 0 0 0.25 0"/>
<feBlend mode="normal" in2="BackgroundImageFix" result="effect1_dropShadow_1_28"/>
<feBlend mode="normal" in="SourceGraphic" in2="effect1_dropShadow_1_28" result="shape"/>
</filter>
</defs>
</svg>
