<svg width="204" height="83" viewBox="0 0 204 83" fill="none" xmlns="http://www.w3.org/2000/svg">
<path d="M20.6699 30.6667C22.5944 27.3334 27.4056 27.3334 29.3301 30.6667L42.3205 53.1667C44.245 56.5 41.8394 60.6667 37.9904 60.6667H12.0096C8.16061 60.6667 5.75499 56.5 7.67949 53.1667L20.6699 30.6667Z" fill="white"/>
<path d="M45.6699 51.5C47.5944 54.8333 52.4056 54.8333 54.3301 51.5L67.3205 29C69.245 25.6667 66.8394 21.5 62.9904 21.5H37.0096C33.1606 21.5 30.755 25.6667 32.6795 29L45.6699 51.5Z" fill="#A6A5FF"/>
<path d="M106.2 24.1V29.75H96.9V59H89.9V29.75H80.6V24.1H106.2ZM118.307 35.6C119.207 34.1333 120.374 32.9833 121.807 32.15C123.274 31.3167 124.941 30.9 126.807 30.9V38.25H124.957C122.757 38.25 121.091 38.7667 119.957 39.8C118.857 40.8333 118.307 42.6333 118.307 45.2V59H111.307V31.3H118.307V35.6ZM135.072 28C133.839 28 132.806 27.6167 131.972 26.85C131.172 26.05 130.772 25.0667 130.772 23.9C130.772 22.7333 131.172 21.7667 131.972 21C132.806 20.2 133.839 19.8 135.072 19.8C136.306 19.8 137.322 20.2 138.122 21C138.956 21.7667 139.372 22.7333 139.372 23.9C139.372 25.0667 138.956 26.05 138.122 26.85C137.322 27.6167 136.306 28 135.072 28ZM138.522 31.3V59H131.522V31.3H138.522ZM156.988 52.55L163.988 31.3H171.438L161.188 59H152.688L142.488 31.3H149.988L156.988 52.55ZM187.67 59.45C185.003 59.45 182.603 58.8667 180.47 57.7C178.337 56.5 176.653 54.8167 175.42 52.65C174.22 50.4833 173.62 47.9833 173.62 45.15C173.62 42.3167 174.237 39.8167 175.47 37.65C176.737 35.4833 178.453 33.8167 180.62 32.65C182.787 31.45 185.203 30.85 187.87 30.85C190.537 30.85 192.953 31.45 195.12 32.65C197.287 33.8167 198.987 35.4833 200.22 37.65C201.487 39.8167 202.12 42.3167 202.12 45.15C202.12 47.9833 201.47 50.4833 200.17 52.65C198.903 54.8167 197.17 56.5 194.97 57.7C192.803 58.8667 190.37 59.45 187.67 59.45ZM187.67 53.35C188.937 53.35 190.12 53.05 191.22 52.45C192.353 51.8167 193.253 50.8833 193.92 49.65C194.587 48.4167 194.92 46.9167 194.92 45.15C194.92 42.5167 194.22 40.5 192.82 39.1C191.453 37.6667 189.77 36.95 187.77 36.95C185.77 36.95 184.087 37.6667 182.72 39.1C181.387 40.5 180.72 42.5167 180.72 45.15C180.72 47.7833 181.37 49.8167 182.67 51.25C184.003 52.65 185.67 53.35 187.67 53.35Z" fill="white"/>
</svg>
